<svg xmlns="http://www.w3.org/2000/svg" width="187.422" height="100.024" viewBox="0 0 187.422 100.024">
  <g id="Layer_2" transform="translate(0)">
    <path id="Path_5" data-name="Path 5" d="M76.734,63.889a39.668,39.668,0,0,1-39.588,39.588A40.134,40.134,0,0,1,19.168,99.27,37.868,37.868,0,0,0,22.611,83.2,39.818,39.818,0,0,0,1,47.824,39.566,39.566,0,0,1,76.734,63.889Z" transform="translate(110.688 -24.299)" fill="#fff"/>
    <g id="Group_4" data-name="Group 4" transform="translate(52.402 17.023)">
      <path id="Path_6" data-name="Path 6" d="M69.509,42.762A31.794,31.794,0,0,0,37.571,74.7a30.062,30.062,0,0,0,2.869,13,31.93,31.93,0,0,0,58.33,0,30.062,30.062,0,0,0,2.869-13,32.01,32.01,0,0,0-17.4-28.5,36.1,36.1,0,0,0-14.726-3.442m0-9.562a39.6,39.6,0,0,1,18.933,4.59A41.458,41.458,0,1,1,28.2,74.892,41.124,41.124,0,0,1,50.958,37.981,37.171,37.171,0,0,1,69.509,33.2Z" transform="translate(-28.2 -33.2)"/>
    </g>
    <path id="Path_7" data-name="Path 7" d="M113.523,83.013a37.252,37.252,0,0,0,3.442,16.065,40.259,40.259,0,0,1-17.977,4.4,39.588,39.588,0,1,1,36.146-55.653A39.089,39.089,0,0,0,113.523,83.013Z" transform="translate(-59.4 -24.298)"/>
  </g>
</svg>
