<svg xmlns="http://www.w3.org/2000/svg" width="97.8" height="97.8" viewBox="0 0 97.8 97.8">
  <path id="pynswwebsitelogo" d="M97.8,48.9A48.9,48.9,0,1,1,48.9,0h0A48.91,48.91,0,0,1,97.8,48.9ZM77.766,36.478H52.418c6.247-1.436,10.843-6.678,10.843-12.853C63.261,16.3,56.8,10.34,48.9,10.34S34.539,16.3,34.539,23.624c0,6.247,4.6,11.417,10.843,12.853H20.106a6.558,6.558,0,0,0-6.534,6.534v4.667a6.558,6.558,0,0,0,6.534,6.534H38.632V81.069A6.558,6.558,0,0,0,45.166,87.6h7.611a6.558,6.558,0,0,0,6.534-6.534h0V54.214H77.838a6.558,6.558,0,0,0,6.534-6.534V43.012a6.528,6.528,0,0,0-6.606-6.534Z" fill="#fff"/>
</svg>
